<svg width="85" height="65" viewBox="0 0 85 65" fill="none" xmlns="http://www.w3.org/2000/svg">
<path d="M84.8602 14.8881H54.7585V4.92578H84.8602V14.8903V14.8881Z" fill="#A2BFFF"/>
<path d="M84.8601 29.8356H74.9753V19.8711H84.8601V29.8356Z" fill="#A2BFFF"/>
<path d="M69.9289 19.8717V29.7964H54.701C54.701 30.8433 54.701 31.7995 54.701 32.7579C54.6966 38.2204 51.1308 41.7906 45.6749 41.7928C41.3655 41.7928 37.0583 41.7928 32.7489 41.7928C30.6529 41.7928 29.5241 42.7157 29.2872 44.7786C28.7273 49.6701 28.2226 54.5683 27.698 59.462C27.6803 59.6236 27.698 59.7896 27.698 60.0352H32.2797V64.9998H0.039961C0.039961 63.4062 -0.00651942 61.8126 0.0488145 60.2212C0.232523 54.8139 0.889889 49.4731 2.48129 44.2784C3.50608 40.9318 4.84516 37.7313 6.81725 34.8229C7.54545 33.7494 7.73137 32.6251 7.10278 31.463C6.47861 30.3077 5.45604 29.8119 4.15459 29.8296C2.80666 29.8473 1.45872 29.834 0.00454736 29.834C0.150629 27.6207 -0.387217 25.4339 0.737168 23.3732C1.23739 22.4569 1.57603 21.4498 1.93681 20.4649C2.10723 19.9979 2.35292 19.8562 2.84207 19.8584C6.40557 19.8806 9.96686 19.8695 13.5304 19.8695C31.9787 19.8695 50.4292 19.8695 68.8775 19.8695H69.9289V19.8717ZM39.7586 29.8384C38.3598 29.8384 37.0406 29.8119 35.7237 29.8451C33.9242 29.8893 32.4612 31.3081 32.3417 33.0699C32.2199 34.8539 33.4373 36.5361 35.2257 36.7308C36.7108 36.8924 38.2292 36.764 39.7608 36.764V29.8384H39.7586ZM44.7962 36.7972C45.4381 36.7972 46.0158 36.8371 46.5868 36.7884C47.9989 36.6689 49.3137 35.6861 49.5416 34.2851C49.7785 32.8398 49.7165 31.3457 49.7851 29.8783H44.794V36.795L44.7962 36.7972Z" fill="#A2BFFF"/>
<path d="M34.7609 14.8671H4.26306C4.37373 14.5617 4.45784 14.3093 4.55744 14.0614C5.70396 11.2483 6.87261 8.44395 7.98593 5.6175C8.21169 5.04424 8.51713 4.9048 9.08596 4.91365C10.9894 4.94685 12.8951 4.92693 14.8894 4.92693V0H19.8739V4.8893H34.7631V14.8671H34.7609Z" fill="#A2BFFF"/>
<path d="M39.8251 14.8337V4.96875H49.6657V14.8337H39.8251Z" fill="#A2BFFF"/>
</svg>
