<svg width="427" height="429" viewBox="0 0 427 429" fill="none" xmlns="http://www.w3.org/2000/svg">
<path d="M10 405.587C11.04 397.967 11.85 390.307 13.16 382.737C20.61 339.707 40.19 302.987 71.21 272.367C91.94 251.907 116.01 236.587 143.4 226.557C144.49 226.157 145.52 225.607 146.48 225.167C140.61 219.887 134.55 215.097 129.24 209.577C85.82 164.447 84.86 94.377 127.29 48.347C153.82 19.557 187.24 6.85699 225.99 10.657C276.17 15.577 316.66 50.687 328.33 99.727C338.88 144.057 326.96 182.737 293.95 214.247C271.49 235.687 244.01 245.497 213.1 245.857C172.51 246.337 136.23 259.137 105.04 285.017C70.38 313.787 49.46 350.617 43.49 395.527C42.63 401.967 42.47 408.507 41.92 414.997C41.82 416.137 41.41 417.257 41.14 418.377H10C10 414.107 10 409.847 10 405.587ZM214.19 41.757C167.17 41.457 128.5 79.927 128.08 127.427C127.66 174.687 166.21 213.607 213.74 213.917C261.05 214.217 299.82 175.667 300.05 128.087C300.28 80.747 261.82 42.067 214.19 41.767V41.757Z" fill="white" stroke="white" stroke-width="20"/>
<path d="M320.69 418.365C320.47 416.815 320.05 415.265 320.05 413.715C320.01 394.425 320.02 375.135 320.02 355.855C320.02 354.425 320.02 352.995 320.02 351.105H253.35V319.295H319.9V252.535H351.77V319.085H418.65V351.085H351.84V418.385H320.69V418.365Z" fill="white" stroke="white" stroke-width="15"/>
</svg>
