<svg width="110" height="74" viewBox="0 0 110 74" fill="none" xmlns="http://www.w3.org/2000/svg">
<path d="M0 19.9218C18.6079 21.0909 33.6243 14.4687 45.2888 0C45.4389 0.287005 45.5995 0.552945 45.7233 0.83205C49.3253 9.01826 52.9458 17.1939 56.5136 25.3933C62.4432 39.0195 59.2151 54.128 48.3247 64.1468C47.3768 65.0184 46.3657 65.4107 45.1308 65.5108C30.5304 66.7009 17.2782 58.9808 11.2695 45.6469C7.53584 37.3633 3.93907 29.0164 0.284372 20.6986C0.184315 20.4721 0.113222 20.2351 0 19.9218ZM26.7309 47.648C29.0717 50.8683 35.4464 53.4776 41.4314 50.2916C46.758 47.4558 48.4853 41.1891 47.6164 38.4876C41.6446 43.7195 34.7223 46.787 26.7309 47.648ZM37.1052 26.5097C37.2105 27.0416 37.2816 27.5788 37.4264 28.1001C37.6397 28.869 38.0716 29.4877 38.9747 29.2297C39.8647 28.9743 39.9147 28.295 39.6777 27.4787C39.2196 25.9015 39.7699 24.6034 41.0785 23.9952C42.4398 23.3606 43.7695 23.8029 44.6911 25.2643C45.1229 25.9489 45.6706 26.307 46.4052 25.9041C47.232 25.4512 47.0872 24.7377 46.6949 24.0241C45.5995 22.0414 43.2403 21.0172 41.0285 21.578C38.7246 22.1652 37.1789 24.1373 37.1052 26.5097ZM21.9809 30.5225C18.1076 30.5252 15.651 33.9297 16.7595 37.1868C17.0202 37.9557 17.4204 38.5376 18.342 38.2453C19.1924 37.9741 19.2319 37.3238 19.0292 36.5654C18.5974 34.9672 19.1371 33.6901 20.4537 33.0924C21.815 32.4736 23.1052 32.9239 24.061 34.3958C24.4981 35.0672 25.03 35.4358 25.7778 34.9751C26.5282 34.5116 26.4255 33.8218 26.0463 33.1582C25.0589 31.4362 23.5633 30.5647 21.9809 30.5252V30.5225Z" fill="#D6211F"/>
<path d="M109.383 25.4487C108.38 28.2213 107.416 30.8807 106.455 33.5375C104.191 39.791 102.113 46.1209 99.6222 52.285C94.5641 64.7999 85.1745 71.8987 71.8275 73.784C71.4325 73.8393 71.0297 73.8445 70.6295 73.863C64.7077 74.1078 65.7425 74.3975 61.3163 70.3425C58.6358 67.8885 56.611 64.9053 54.91 61.6955C54.5783 61.0689 54.6362 60.6371 55.0417 60.0367C62.7039 48.7171 63.8414 36.7393 58.5094 24.1717C57.9749 22.9157 57.8643 21.8783 58.3646 20.5881C59.7759 16.965 61.0398 13.2839 62.3669 9.62923C62.4906 9.28956 62.6407 8.96043 62.7934 8.5918C75.3637 22.2627 90.8172 27.8632 109.388 25.4487H109.383ZM60.0419 54.9049C64.1416 54.8654 67.9095 55.7079 71.58 57.035C75.24 58.3568 78.6656 60.1262 81.7094 62.6961C82.3335 58.2199 79.0447 53.0591 74.4369 51.1106C69.3735 48.9699 63.5307 50.4471 60.0419 54.9049ZM90.1273 43.925C92.2101 43.9355 94.098 42.6874 94.8511 40.8416C95.1381 40.1386 95.0933 39.5093 94.3876 39.1591C93.703 38.8221 93.1159 39.0669 92.7657 39.7779C92.7183 39.8753 92.6788 39.978 92.6235 40.0701C91.8757 41.3656 90.5039 41.8949 89.1847 41.3946C87.8866 40.9022 87.1809 39.5857 87.5206 38.1217C87.7128 37.2949 87.6365 36.6261 86.7359 36.3996C85.8117 36.1679 85.4431 36.8025 85.2377 37.5766C84.3899 40.7837 86.7939 43.9092 90.1221 43.925H90.1273ZM69.2497 36.2206C71.0481 36.0916 72.5964 35.1832 73.5416 33.3321C73.9155 32.6028 73.9866 31.8866 73.1256 31.4863C72.362 31.1335 71.8486 31.4969 71.4694 32.2289C70.6874 33.735 69.355 34.2906 67.9543 33.7692C66.6325 33.2768 65.94 31.9392 66.3112 30.3857C66.5166 29.5247 66.3507 28.8822 65.4844 28.69C64.576 28.4873 64.2179 29.1376 64.0231 29.9223C63.2305 33.1162 65.7109 36.2548 69.2497 36.2206Z" fill="#D6211F"/>
</svg>
