<?xml version="1.0" encoding="UTF-8"?>
<svg id="Layer_2" data-name="Layer 2" xmlns="http://www.w3.org/2000/svg" viewBox="0 0 57 74.62">
  <defs>
    <style>
      .cls-1 {
        fill: #a2bfff;
        stroke-width: 0px;
      }
    </style>
  </defs>
  <g id="Layer_1-2" data-name="Layer 1">
    <path class="cls-1" d="M26.63,74.62c-.28-.06-.56-.12-.84-.19,2.01-1.32,4.03-2.64,6.04-3.96,1.17,1.05,2.38,2.13,3.74,3.34-1.47.23-2.81.45-4.16.66-.28.04-.56.1-.84.15h-3.94Z"/>
    <path class="cls-1" d="M5.61,63.19c1.91-.51,3.66-.84,5.32-1.43,12.5-4.47,20.36-13.16,23.38-26.1.54-2.29.68-4.71.75-7.08.12-3.73-2.83-6.68-6.5-6.71-3.61-.03-6.57,2.86-6.59,6.57-.08,10.83-7.61,19.15-16.75,21.29-1.55.36-3.15.5-4.9.77-.11-1.58-.22-2.99-.32-4.42,1.23-.16,2.36-.25,3.47-.46,7.56-1.46,13.3-7.85,14.01-15.54.13-1.38.12-2.78.41-4.12,1.11-5.09,5.84-8.68,11.02-8.47,5.27.21,9.69,4.11,10.42,9.3.42,2.99.09,5.98-.52,8.91-2.94,14.11-11.13,23.93-24.4,29.49-1.58.66-3.27,1.06-4.92,1.56-.19.06-.53.04-.64-.08-1.07-1.12-2.11-2.26-3.22-3.47h0Z"/>
    <path class="cls-1" d="M.15,32.84C-.68,22.7,2.04,13.98,9.68,7.13,13.82,3.41,18.67,1.06,24.17.32c10.71-1.45,19.64,2.03,26.55,10.34,4.14,4.99,6.21,10.84,6.26,17.33.05,6.61,0,13.22-.03,19.83,0,.82-.14,1.63-.22,2.44-1.85.06-3.65-1.48-3.99-3.38-.09-.48-.11-.97-.11-1.45-.01-5.88.06-11.76-.04-17.64-.18-11.15-8.44-20.9-19.38-22.99C20.51,2.37,8.22,10.17,5.16,22.66c-.45,1.82-.56,3.74-.7,5.62-.16,2.22-1.3,3.85-3.28,4.39-.32.09-.66.11-1.02.17h0Z"/>
    <path class="cls-1" d="M.07,41.56v-4.3c.51-.06,1.01-.1,1.5-.19,4.27-.83,7.17-4.28,7.24-8.72.07-4.83,1.57-9.15,4.79-12.74,5.5-6.12,12.4-8.34,20.3-6.09,7.77,2.21,12.44,7.61,14.03,15.56.25,1.25.29,2.56.3,3.84.03,5.59,0,11.18.02,16.77,0,3.97,2.23,7.21,5.79,8.51.52.19,1.06.32,1.72.51-.53,1.26-1.02,2.49-1.57,3.7-.07.15-.49.28-.68.22-5.04-1.56-8.2-4.91-9.37-10.07-.21-.94-.27-1.93-.27-2.89-.03-5.71,0-11.42-.02-17.13-.03-7.41-4.94-13.49-12.14-15.1-8.58-1.92-17.28,4.2-18.37,12.91-.22,1.76-.2,3.56-.59,5.27-1.29,5.67-6.45,9.79-12.25,9.96-.12,0-.24,0-.43-.02h0Z"/>
    <path class="cls-1" d="M1.36,54.8c1.37-.2,2.64-.34,3.89-.58,10.42-1.98,18.95-10.73,20.65-21.19.24-1.46.33-2.94.42-4.42.08-1.39,1-2.39,2.25-2.35,1.24.04,2.13,1.03,2.14,2.38.02,14.88-11.13,27.87-25.85,30.1-1.79.27-1.8.28-2.5-1.37-.36-.84-.66-1.7-1-2.58h0Z"/>
    <path class="cls-1" d="M33.14,57.28c2.8,5.24,6.55,9.34,11.94,12.15-1.55.86-2.92,1.65-4.32,2.39-.15.08-.49-.12-.7-.26-2.72-1.79-5.07-3.98-7.11-6.53-.19-.24-.39-.48-.6-.75-1.01.82-1.97,1.64-2.96,2.41-3.14,2.44-6.55,4.43-10.19,6.01-.2.09-.5.15-.68.07-1.69-.76-3.38-1.55-5.05-2.46,7.71-2.61,14.15-6.99,19.66-13.04h0Z"/>
    <path class="cls-1" d="M39.53,47.76c1.1,7.37,5.15,12.33,12.21,15.01-.96,1.1-1.86,2.18-2.82,3.2-.13.14-.58.12-.81.02-3.78-1.68-6.87-4.21-9.15-7.65-.98-1.48-1.68-3.16-2.48-4.76-.1-.2-.1-.54.01-.73.99-1.69,2-3.37,3.04-5.09h0Z"/>
  </g>
</svg>