<svg width="57" height="75" viewBox="0 0 57 75" fill="none" xmlns="http://www.w3.org/2000/svg">
<path d="M26.6313 74.6219C26.3527 74.5596 26.0722 74.4973 25.7936 74.4349C27.8059 73.1142 29.8202 71.7954 31.8364 70.4727C33.0071 71.5207 34.213 72.5979 35.5727 73.8155C34.1019 74.0492 32.7578 74.2616 31.4137 74.4758C31.1312 74.5206 30.8507 74.5732 30.5702 74.6219H26.6332H26.6313Z" fill="#D6211F"/>
<path d="M5.61418 63.1933C7.52714 62.6849 9.27451 62.3537 10.9303 61.7615C23.4288 57.2928 31.289 48.6027 34.3085 35.6659C34.8442 33.3711 34.9844 30.9536 35.0624 28.5868C35.1851 24.8544 32.228 21.9051 28.5638 21.8739C24.9502 21.8447 21.997 24.7356 21.9697 28.4427C21.8918 39.2775 14.3549 47.5975 5.22068 49.7325C3.67201 50.0949 2.07269 50.2351 0.319475 50.5059C0.204542 48.928 0.103245 47.5196 0 46.0897C1.23115 45.93 2.36489 45.8423 3.47331 45.6281C11.0336 44.1651 16.7744 37.7795 17.4796 30.0907C17.6062 28.7154 17.5964 27.3089 17.8906 25.9706C19.0029 20.8824 23.7346 17.2903 28.9125 17.4967C34.1838 17.7071 38.6038 21.6051 39.3324 26.7927C39.7532 29.7829 39.4201 32.777 38.8103 35.7029C35.8669 49.8104 27.6813 59.6323 14.4056 65.1939C12.8257 65.8563 11.1329 66.2556 9.48489 66.7504C9.29009 66.8088 8.95893 66.7913 8.8401 66.6686C7.76674 65.5524 6.72845 64.405 5.61613 63.1972L5.61418 63.1933Z" fill="#D6211F"/>
<path d="M0.150156 32.8372C-0.675803 22.7036 2.04168 13.9823 9.6818 7.12529C13.8174 3.41237 18.6738 1.06112 24.1711 0.318922C34.8852 -1.12651 43.8091 2.34486 50.7168 10.6609C54.8583 15.6479 56.9271 21.4997 56.9777 27.9924C57.0303 34.6021 56.9777 41.2117 56.9504 47.8213C56.9465 48.6375 56.8063 49.4537 56.7303 50.2563C54.8797 50.3148 53.0817 48.7719 52.7388 46.8765C52.6531 46.4012 52.6278 45.9103 52.6258 45.4272C52.6122 39.5461 52.6843 33.6631 52.5888 27.784C52.4096 16.6355 44.1442 6.88569 33.2061 4.79546C20.5147 2.37213 8.21884 10.1681 5.16046 22.6607C4.71436 24.4841 4.59553 26.399 4.45722 28.2808C4.29359 30.5034 3.154 32.132 1.17287 32.6696C0.849494 32.7573 0.508592 32.7807 0.152104 32.8372H0.150156Z" fill="#D6211F"/>
<path d="M0.0740305 41.5647V37.2693C0.582463 37.207 1.0831 37.1739 1.57206 37.0784C5.84406 36.2525 8.74076 32.7986 8.80894 28.3611C8.88296 23.53 10.3771 19.2073 13.5972 15.623C19.0945 9.50035 25.9943 7.28741 33.8994 9.53542C41.672 11.7445 46.3414 17.1444 47.9271 25.0962C48.1764 26.3468 48.2193 27.6539 48.2251 28.9357C48.2563 34.5246 48.229 40.1134 48.2426 45.7023C48.2524 49.6704 50.4692 52.9158 54.036 54.2132C54.5562 54.4021 55.0977 54.5288 55.7561 54.7216C55.2302 55.982 54.7393 57.2131 54.1899 58.417C54.1198 58.5689 53.7049 58.6975 53.512 58.6371C48.4686 57.0748 45.3109 53.7262 44.144 48.5659C43.9317 47.6269 43.8732 46.6393 43.8693 45.6731C43.844 39.9634 43.8771 34.2519 43.8518 28.5422C43.8187 21.1359 38.9097 15.0522 31.7118 13.4451C23.1366 11.5282 14.4348 17.6411 13.3459 26.3585C13.1277 28.1137 13.1472 29.9156 12.7556 31.6279C11.4621 37.2947 6.30768 41.4147 0.500646 41.5842C0.383765 41.5881 0.264936 41.5744 0.0720825 41.5647H0.0740305Z" fill="#D6211F"/>
<path d="M1.36169 54.7973C2.72725 54.5948 3.9993 54.4545 5.25188 54.2149C15.6718 52.2318 24.2061 43.4891 25.9067 33.0263C26.1444 31.5692 26.234 30.0868 26.3236 28.6102C26.4073 27.2251 27.3249 26.2199 28.5774 26.2589C29.8203 26.2979 30.7105 27.2894 30.7125 28.6413C30.7358 43.5222 19.5854 56.5116 4.86422 58.744C3.07205 59.0168 3.06036 59.0206 2.36297 57.3726C2.00648 56.533 1.6987 55.674 1.35974 54.7954L1.36169 54.7973Z" fill="#D6211F"/>
<path d="M33.1416 57.2793C35.9389 62.5214 39.6869 66.62 45.0849 69.431C43.5362 70.2959 42.1667 71.0849 40.7661 71.8173C40.6161 71.8953 40.2752 71.6966 40.0668 71.5602C37.3473 69.768 34.9922 67.5765 32.9604 65.0324C32.7675 64.7908 32.5727 64.5493 32.3643 64.2863C31.3591 65.1084 30.3988 65.9265 29.4053 66.698C26.2651 69.1349 22.858 71.1297 19.2113 72.7115C19.0087 72.7991 18.7146 72.8654 18.5334 72.7836C16.8386 72.0258 15.1575 71.2349 13.4841 70.3232C21.1924 67.7129 27.6384 63.3298 33.1435 57.2793H33.1416Z" fill="#D6211F"/>
<path d="M39.5252 47.7588C40.6259 55.1301 44.6797 60.0897 51.7315 62.7683C50.7731 63.8708 49.8692 64.9461 48.9108 65.9688C48.7764 66.111 48.3283 66.0935 48.0965 65.9903C44.3193 64.315 41.2259 61.7806 38.9506 58.3404C37.9688 56.856 37.2675 55.1827 36.4707 53.5814C36.3733 53.3847 36.3753 53.0379 36.4844 52.8509C37.4701 51.1561 38.4889 49.4808 39.5252 47.7568V47.7588Z" fill="#D6211F"/>
</svg>
