<svg width="34" height="34" viewBox="0 0 34 34" fill="none" xmlns="http://www.w3.org/2000/svg">
<path d="M30.8912 14.2251H29.75V14.1663H17V19.833H25.0063C23.8383 23.1317 20.6997 25.4997 17 25.4997C12.3059 25.4997 8.50004 21.6938 8.50004 16.9997C8.50004 12.3056 12.3059 8.49967 17 8.49967C19.1668 8.49967 21.1381 9.31709 22.6391 10.6523L26.6461 6.64526C24.116 4.28722 20.7315 2.83301 17 2.83301C9.1765 2.83301 2.83337 9.17613 2.83337 16.9997C2.83337 24.8232 9.1765 31.1663 17 31.1663C24.8236 31.1663 31.1667 24.8232 31.1667 16.9997C31.1667 16.0498 31.069 15.1226 30.8912 14.2251Z" fill="#FFC107"/>
<path d="M4.4668 10.4058L9.12125 13.8193C10.3807 10.7012 13.4308 8.49967 17 8.49967C19.1668 8.49967 21.1381 9.31709 22.6391 10.6523L26.6461 6.64526C24.116 4.28722 20.7315 2.83301 17 2.83301C11.5586 2.83301 6.83971 5.90505 4.4668 10.4058Z" fill="#FF3D00"/>
<path d="M17.0001 31.1672C20.6593 31.1672 23.9842 29.7668 26.4981 27.4895L22.1135 23.7792C20.6434 24.8973 18.847 25.502 17.0001 25.5005C13.3153 25.5005 10.1866 23.1509 9.00793 19.8721L4.38818 23.4314C6.73277 28.0193 11.4942 31.1672 17.0001 31.1672Z" fill="#4CAF50"/>
<path d="M30.8911 14.2258H29.75V14.167H17V19.8337H25.0063C24.4476 21.4036 23.4411 22.7755 22.1113 23.7798L22.1135 23.7784L26.498 27.4886C26.1878 27.7705 31.1667 24.0837 31.1667 17.0003C31.1667 16.0505 31.0689 15.1232 30.8911 14.2258Z" fill="#1976D2"/>
</svg>
