<svg width="15" height="21" viewBox="0 0 15 21" fill="none" xmlns="http://www.w3.org/2000/svg">
<path fill-rule="evenodd" clip-rule="evenodd" d="M9.375 1.90909V2.18591C12.0863 3.00682 14.0625 5.56405 14.0625 8.59091V15.2727H15V17.1818H0V15.2727H0.9375V8.59091C0.937589 7.15179 1.39381 5.75113 2.23835 4.59715C3.08288 3.44318 4.27063 2.59753 5.625 2.18591V1.90909C5.625 1.40277 5.82254 0.917184 6.17418 0.55916C6.52581 0.201136 7.00272 0 7.5 0C7.99728 0 8.47419 0.201136 8.82582 0.55916C9.17746 0.917184 9.375 1.40277 9.375 1.90909ZM2.8125 15.2727H12.1875V8.59091C12.1875 7.3251 11.6936 6.11114 10.8146 5.21608C9.93549 4.32102 8.7432 3.81818 7.5 3.81818C6.2568 3.81818 5.06451 4.32102 4.18544 5.21608C3.30636 6.11114 2.8125 7.3251 2.8125 8.59091V15.2727ZM9.375 19.0909V18.1364H5.625V19.0909C5.625 19.5972 5.82254 20.0828 6.17418 20.4408C6.52581 20.7989 7.00272 21 7.5 21C7.99728 21 8.47419 20.7989 8.82582 20.4408C9.17746 20.0828 9.375 19.5972 9.375 19.0909Z" fill="white"/>
</svg>
