<?xml version="1.0" encoding="UTF-8"?>
<svg id="Layer_2" data-name="Layer 2" xmlns="http://www.w3.org/2000/svg" viewBox="0 0 66.82 79.67">
  <defs>
    <style>
      .cls-1 {
        fill: #d6211f;
        stroke-width: 0px;
      }
    </style>
  </defs>
  <g id="Layer_1-2" data-name="Layer 1">
    <path class="cls-1" d="M44.09,75.12h19.97c1.05,0,1.97.26,2.49,1.26.4.76.38,1.59-.18,2.22-.41.45-1.03.73-1.6,1.01-.24.12-.58.04-.88.04H2.88c-1.6,0-2.39-.45-2.76-1.55-.47-1.4.46-2.88,1.93-3.04.36-.04.72-.02,1.08-.02h21.96c.55-2.36,1.1-4.68,1.64-7,.75-3.26,1.47-6.53,2.27-9.78.22-.91.07-1.53-.63-2.17-4.62-4.25-9.19-8.55-13.8-12.8-.39-.36-.92-.64-1.43-.79-2.61-.78-5.23-1.5-7.85-2.24-1.23-.35-1.48-.8-1.07-2.01.65-1.92,1.31-3.84,2.02-5.91,1.45.88,2.82,1.7,4.17,2.54.15.09.29.31.31.48.13,1.2.99,1.54,1.99,1.82,1.52.42,3,.94,4.51,1.41.3.09.61.15.91.22l.21-.28c-.28-.27-.53-.59-.85-.81-3.8-2.53-7.61-5.03-11.41-7.56-.66-.43-1.24-.98-1.9-1.41-.99-.64-1.24-1.5-1-2.62.62-2.95,1.2-5.92,1.81-8.87.24-1.16.47-2.32.84-3.44.15-.45.58-.95,1.01-1.15.97-.45,2.03-.72,3.14-1.09,0,.51.03.95,0,1.39-.28,3.34-.56,6.68-.86,10.01-.07.78.07,1.4.76,1.88,3.68,2.59,7.34,5.21,11.02,7.8.32.23.72.34,1.09.52.07-.11.14-.22.21-.32-.21-.26-.41-.54-.64-.77-2.76-2.77-5.51-5.55-8.3-8.29-.7-.68-.97-1.4-.89-2.36.43-4.91.8-9.82,1.27-14.72.05-.54.45-1.2.9-1.52,2.3-1.64,4.61-3.29,7.04-4.71,1.42-.83,3.08-.44,4.56.14.71.28.67,2.59,0,3.22-1.61,1.55-3.22,3.09-4.87,4.61-.57.52-.88,1.08-.93,1.86-.19,3.01-.45,6.03-.6,9.04-.02.47.27,1.11.63,1.42,2.64,2.22,5.32,4.39,8.02,6.54.24.19.62.22.93.32.02-.35.16-.76.04-1.05-1.07-2.65-2.21-5.26-3.25-7.92-.23-.6-.28-1.35-.16-1.99.49-2.55,1.07-5.07,1.64-7.6.08-.33.23-.69.46-.95,1.81-2.12,3.6-4.27,5.5-6.31,1.29-1.38,3.12-1.58,4.89-1.6.37,0,.85.66,1.11,1.11.91,1.65.88,1.66-.31,3.06-1.28,1.5-2.6,2.97-3.81,4.52-.39.5-.66,1.22-.71,1.86-.18,2.22-.28,4.46-.34,6.69-.02.56.12,1.19.37,1.69,1.87,3.65,3.78,7.28,5.73,10.89.26.48.75.95,1.24,1.15,1.87.79,3.79,1.47,5.69,2.19.92.35,1.64.18,2.16-.73,1.12-1.93,2.31-3.82,3.38-5.77.21-.38.15-1.04-.02-1.47-.71-1.76-1.52-3.49-2.29-5.23-.42-.94-.01-3.48.73-4.16.21-.19.68-.29.97-.21,1.59.47,3,1.09,3.81,2.78,1.15,2.39,2.56,4.66,3.79,7.01.23.43.32,1.08.18,1.55-1.44,4.94-2.92,9.88-4.43,14.8-.18.6-.57,1.18-.99,1.66-3.25,3.71-6.52,7.39-9.81,11.06-.61.68-.89,1.39-.88,2.3.06,5.68.08,11.37.11,17.05v1.07h0Z"/>
  </g>
</svg>