<svg width="46" height="80" viewBox="0 0 46 80" fill="none" xmlns="http://www.w3.org/2000/svg">
<path d="M29.5503 41.5969C28.7632 39.9197 28.599 38.2959 29.0697 36.6049C29.7521 34.1524 30.4087 31.694 31.1009 29.2435C32.1235 25.6143 31.5993 22.1946 29.7501 18.9471C28.9768 17.5883 28.1619 16.2533 27.442 14.8669C26.8249 13.6822 26.8862 13.6149 28.1283 13.1581C31.9554 11.7479 35.3592 9.65933 38.3357 6.86668C38.6917 6.53243 39.0754 6.20609 39.4987 5.96875C40.1791 5.58704 40.4362 5.74724 40.4698 6.53045C40.5034 7.31168 40.5608 8.09885 40.4995 8.87612C40.1197 13.6921 41.2431 18.1659 43.3594 22.4676C44.0654 23.9054 44.639 25.4679 44.9357 27.0363C45.5488 30.2759 44.3423 33.0132 42.1015 35.3253C39.3602 38.1496 35.911 39.7437 32.2204 40.8888C31.366 41.1539 30.4918 41.3516 29.5543 41.6008L29.5503 41.5969Z" fill="#A2BFFF"/>
<path d="M26.3582 42.069C22.7506 42.3736 19.0284 42.2371 15.7037 40.02C13.1009 38.2835 12.0191 35.6807 11.5899 32.6823C11.0638 29.0155 10.4349 25.3645 9.8534 21.7055C9.83164 21.573 9.83362 21.4365 9.82373 21.2783C11.8569 21.5216 13.8308 21.7649 15.8086 21.9903C17.2187 22.1505 18.6368 22.2534 20.043 22.4432C21.7261 22.6707 22.3966 23.2522 22.7328 24.9254C23.1205 26.8537 23.3519 28.8137 23.7158 30.748C24.1074 32.8366 24.7245 34.854 25.9666 36.6241C26.0476 36.7388 26.1327 36.8792 26.1386 37.0117C26.2197 38.6691 26.285 40.3246 26.3582 42.067V42.069Z" fill="#A2BFFF"/>
<path d="M0 51.2569C3.27129 53.031 6.60784 53.2742 10.0393 52.9538C12.8893 52.6868 15.7216 52.7007 18.4292 53.8043C22.1929 55.341 24.0995 58.3077 24.7937 62.1842C24.8036 62.2416 24.8056 62.3009 24.7977 62.3583C24.7898 62.4136 24.766 62.467 24.77 62.4492C23.2946 62.0478 21.8428 61.5573 20.3536 61.2645C17.3157 60.6653 14.3134 61.0628 11.3012 61.6443C9.73277 61.9469 8.08328 62.0398 6.48917 61.937C4.48961 61.8084 2.98648 60.6475 1.93231 58.9584C0.488517 56.6464 0.118668 54.0594 0 51.2549L0 51.2569Z" fill="#A2BFFF"/>
<path d="M30.1337 44.3233C31.0336 44.0939 31.8663 43.8823 32.9284 43.6113C32.9442 45.8245 33.0787 47.9625 32.9541 50.0847C32.5822 56.4216 30.6618 62.2284 26.72 67.2836C22.9464 72.1233 18.0474 75.4322 12.375 77.6078C10.0056 78.5176 7.53536 79.1683 5.10069 79.8961C4.06827 80.2046 3.31671 79.8051 3.10706 78.9547C2.91324 78.1616 3.41362 77.4871 4.41043 77.2439C9.07607 76.1027 13.5558 74.5006 17.6142 71.8721C25.2149 66.9454 29.4158 59.95 30.197 50.9371C30.3513 49.1571 30.2247 47.3533 30.2148 45.5595C30.2148 45.1599 30.1654 44.7604 30.1357 44.3233H30.1337Z" fill="#A2BFFF"/>
<path d="M26.9832 32.7261C26.6608 31.0746 26.3286 29.4232 26.0161 27.7697C25.7906 26.5771 25.6284 25.3706 25.3673 24.1859C24.7819 21.5258 23.1028 20.0167 20.407 19.7003C19.8156 19.6311 19.5803 19.3819 19.3904 18.8558C18.5004 16.3796 17.5708 13.9152 16.6472 11.4509C16.0994 9.98928 16.2991 9.17046 17.557 8.19739C19.4142 6.7615 21.5838 6.1464 23.882 6.12069C25.0726 6.10685 26.2969 6.34418 27.4519 6.66063C28.4863 6.94544 29.1252 7.75831 29.3051 8.86588C29.3902 9.38605 29.2913 9.73809 28.7197 9.92203C27.978 10.1613 27.2522 10.458 26.5402 10.7764C26.0971 10.9762 25.6897 11.2551 25.2744 11.5142C24.95 11.7159 24.6316 12.1273 24.325 12.1134C23.5576 12.0798 22.7942 11.8702 22.0446 11.6763C21.9912 11.6625 21.9616 11.0296 22.0862 10.9505C22.543 10.6637 23.0553 10.4442 23.5735 10.2879C24.5485 9.99323 25.0074 9.36627 24.7878 8.52372C24.5901 7.76227 23.8009 7.29946 22.9248 7.61196C21.9596 7.95609 20.9212 8.30814 20.1539 8.94697C18.2888 10.4976 18.7061 13.2487 20.9272 14.2099C21.8627 14.6134 22.9386 14.6826 23.9433 14.9358C24.1826 14.9971 24.4833 15.1375 24.596 15.3333C25.4662 16.8661 26.2534 18.4464 27.1493 19.9653C28.8127 22.7857 29.2794 25.7346 28.3281 28.8931C27.9484 30.1569 27.6319 31.4385 27.2878 32.7122C27.1849 32.7162 27.0841 32.7221 26.9812 32.7261H26.9832Z" fill="#A2BFFF"/>
<path d="M15.2904 6.50226C13.3502 8.41875 13.1484 10.4974 14.1887 12.8569C14.9799 14.6528 15.587 16.5317 16.2714 18.375C16.3703 18.64 16.4434 18.913 16.5621 19.2887C13.2513 18.9248 10.0235 18.6657 6.9579 17.5265C5.82461 17.1053 5.70199 16.8224 6.03624 15.6931C6.89263 12.8055 8.03975 10.0544 10.3122 7.96781C11.0638 7.27558 11.9835 6.73762 12.8953 6.25701C13.6448 5.86145 14.4617 5.95441 15.2924 6.50424L15.2904 6.50226Z" fill="#A2BFFF"/>
<path d="M17.6599 4.53094C19.0087 3.18999 20.3418 1.83322 21.7143 0.516002C22.2543 -0.00020465 22.9366 -0.142606 23.6526 0.150108C26.2969 1.23592 29.05 1.26757 31.8486 1.13308C33.0768 1.07374 34.3288 1.25174 35.553 1.44161C36.2848 1.55435 36.888 1.98749 37.0502 2.82212C37.2104 3.65082 37.0759 4.33712 36.356 4.89486C34.9458 5.9866 33.5732 7.12384 32.0919 8.31645C31.0496 4.58632 28.3281 3.54402 25.0984 3.32448C22.5747 3.15241 20.1578 3.69433 17.8497 4.73268C17.7884 4.66543 17.7251 4.59819 17.6638 4.53094H17.6599Z" fill="#A2BFFF"/>
</svg>
