<?xml version="1.0" encoding="UTF-8"?>
<svg id="Layer_2" data-name="Layer 2" xmlns="http://www.w3.org/2000/svg" viewBox="0 0 45.09 80">
  <defs>
    <style>
      .cls-1 {
        fill: #d6211f;
        stroke-width: 0px;
      }
    </style>
  </defs>
  <g id="Layer_1-2" data-name="Layer 1">
    <path class="cls-1" d="M29.55,41.6c-.79-1.68-.95-3.3-.48-4.99.68-2.45,1.34-4.91,2.03-7.36,1.02-3.63.5-7.05-1.35-10.3-.77-1.36-1.59-2.69-2.31-4.08-.62-1.18-.56-1.25.69-1.71,3.83-1.41,7.23-3.5,10.21-6.29.36-.33.74-.66,1.16-.9.68-.38.94-.22.97.56.03.78.09,1.57.03,2.35-.38,4.82.74,9.29,2.86,13.59.71,1.44,1.28,3,1.58,4.57.61,3.24-.59,5.98-2.83,8.29-2.74,2.82-6.19,4.42-9.88,5.56-.85.27-1.73.46-2.67.71h0Z"/>
    <path class="cls-1" d="M26.36,42.07c-3.61.3-7.33.17-10.65-2.05-2.6-1.74-3.68-4.34-4.11-7.34-.53-3.67-1.15-7.32-1.74-10.98-.02-.13-.02-.27-.03-.43,2.03.24,4.01.49,5.98.71,1.41.16,2.83.26,4.23.45,1.68.23,2.35.81,2.69,2.48.39,1.93.62,3.89.98,5.82.39,2.09,1.01,4.11,2.25,5.88.08.11.17.26.17.39.08,1.66.15,3.31.22,5.06h0Z"/>
    <path class="cls-1" d="M0,51.26c3.27,1.77,6.61,2.02,10.04,1.7,2.85-.27,5.68-.25,8.39.85,3.76,1.54,5.67,4.5,6.36,8.38,0,.06.01.12,0,.17,0,.06-.03.11-.03.09-1.48-.4-2.93-.89-4.42-1.18-3.04-.6-6.04-.2-9.05.38-1.57.3-3.22.4-4.81.29-2-.13-3.5-1.29-4.56-2.98-1.44-2.31-1.81-4.9-1.93-7.7h0Z"/>
    <path class="cls-1" d="M30.13,44.32c.9-.23,1.73-.44,2.79-.71.02,2.21.15,4.35.03,6.47-.37,6.34-2.29,12.14-6.23,17.2-3.77,4.84-8.67,8.15-14.34,10.32-2.37.91-4.84,1.56-7.27,2.29-1.03.31-1.78-.09-1.99-.94-.19-.79.31-1.47,1.3-1.71,4.67-1.14,9.15-2.74,13.2-5.37,7.6-4.93,11.8-11.92,12.58-20.94.15-1.78.03-3.58.02-5.38,0-.4-.05-.8-.08-1.24h0Z"/>
    <path class="cls-1" d="M26.98,32.73c-.32-1.65-.65-3.3-.97-4.96-.23-1.19-.39-2.4-.65-3.58-.59-2.66-2.26-4.17-4.96-4.49-.59-.07-.83-.32-1.02-.84-.89-2.48-1.82-4.94-2.74-7.4-.55-1.46-.35-2.28.91-3.25,1.86-1.44,4.03-2.05,6.33-2.08,1.19-.01,2.41.22,3.57.54,1.03.28,1.67,1.1,1.85,2.21.09.52-.01.87-.59,1.06-.74.24-1.47.54-2.18.85-.44.2-.85.48-1.27.74-.32.2-.64.61-.95.6-.77-.03-1.53-.24-2.28-.44-.05-.01-.08-.65.04-.73.46-.29.97-.51,1.49-.66.98-.29,1.43-.92,1.21-1.76-.2-.76-.99-1.22-1.86-.91-.97.34-2,.7-2.77,1.34-1.87,1.55-1.45,4.3.77,5.26.94.4,2.01.47,3.02.73.24.06.54.2.65.4.87,1.53,1.66,3.11,2.55,4.63,1.66,2.82,2.13,5.77,1.18,8.93-.38,1.26-.7,2.55-1.04,3.82-.1,0-.2,0-.31.01h0Z"/>
    <path class="cls-1" d="M15.29,6.5c-1.94,1.92-2.14,4-1.1,6.35.79,1.8,1.4,3.67,2.08,5.52.1.26.17.54.29.91-3.31-.36-6.54-.62-9.6-1.76-1.13-.42-1.26-.7-.92-1.83.86-2.89,2-5.64,4.28-7.73.75-.69,1.67-1.23,2.58-1.71.75-.4,1.57-.3,2.4.25h0Z"/>
    <path class="cls-1" d="M17.66,4.53c1.35-1.34,2.68-2.7,4.05-4.01C22.25,0,22.94-.14,23.65.15c2.64,1.09,5.4,1.12,8.2.98,1.23-.06,2.48.12,3.7.31.73.11,1.33.55,1.5,1.38.16.83.03,1.52-.69,2.07-1.41,1.09-2.78,2.23-4.26,3.42-1.04-3.73-3.76-4.77-6.99-4.99-2.52-.17-4.94.37-7.25,1.41-.06-.07-.12-.13-.19-.2h0Z"/>
  </g>
</svg>