<?xml version="1.0" encoding="UTF-8"?>
<svg id="Layer_2" data-name="Layer 2" xmlns="http://www.w3.org/2000/svg" viewBox="0 0 59.09 71.38">
  <defs>
    <style>
      .cls-1 {
        fill: #d6211f;
        stroke-width: 0px;
      }
    </style>
  </defs>
  <g id="Layer_1-2" data-name="Layer 1">
    <path class="cls-1" d="M28.98,0c15.58-.05,28.36,11.4,29.91,26.37.68,6.51-.45,12.79-2.8,18.86-3.37,8.7-8.57,16.09-16.05,21.74-1.65,1.25-3.52,2.25-5.37,3.18-3.61,1.81-7.22,1.53-10.8-.22-4.65-2.27-8.45-5.6-11.78-9.49-5.89-6.88-9.85-14.74-11.45-23.7C-.72,29.07-.07,21.65,3.98,14.82,8.95,6.44,16.31,1.57,25.96.25,27.14.09,28.34.05,28.98,0ZM26.03,51.82c1.34-10.8-8.3-18.4-17.3-16.85-1.18,8.46,5.65,18.07,17.3,16.85ZM50.04,34.94c-2.43-.38-5.81.24-8.4,1.55-5.31,2.68-8.94,8.15-8.63,15.26.03.59.4.55.77.57,2.99.18,5.86-.34,8.46-1.85,5.93-3.45,8.26-8.77,7.8-15.54h0Z"/>
  </g>
</svg>