<svg width="60" height="72" viewBox="0 0 60 72" fill="none" xmlns="http://www.w3.org/2000/svg">
<path d="M28.9819 0.000192944C44.5609 -0.054203 57.3374 11.3994 58.8953 26.3713C59.572 32.8858 58.4449 39.1653 56.0993 45.2271C52.7311 53.9283 47.5244 61.3153 40.0525 66.9681C38.4011 68.217 36.5364 69.2201 34.6782 70.1514C31.0729 71.9573 27.4545 71.6788 23.8752 69.9338C19.2254 67.6665 15.4286 64.331 12.0996 60.4406C6.20523 53.5562 2.24738 45.7036 0.648139 36.737C-0.718287 29.065 -0.0677123 21.6454 3.9837 14.8176C8.95113 6.44285 16.3055 1.57115 25.9575 0.25259C27.139 0.0915781 28.3357 0.052413 28.9819 0.000192944ZM26.0293 51.8243C27.3674 41.0278 17.7328 33.4276 8.72485 34.9702C7.54554 43.4321 14.3777 53.0406 26.0293 51.8243ZM50.0353 34.9376C47.6027 34.5547 44.2302 35.1791 41.6344 36.489C36.3253 39.1696 32.6939 44.6397 33.0072 51.7459C33.0333 52.34 33.4119 52.2964 33.7796 52.3204C36.7736 52.5053 39.637 51.9853 42.2371 50.4709C48.1684 47.0179 50.4987 41.7001 50.0353 34.9354V34.9376Z" fill="#A2BFFF"/>
</svg>
