<svg width="24" height="21" viewBox="0 0 24 21" fill="none" xmlns="http://www.w3.org/2000/svg">
<path d="M19.6364 12.6L19.6364 0H24L24 12.6H19.6364ZM15.2727 0C15.8514 0 16.4063 0.221251 16.8155 0.615078C17.2247 1.0089 17.4545 1.54305 17.4545 2.1L17.4545 12.6C17.4545 13.1775 17.2145 13.7025 16.8109 14.0805L9.63273 21L8.47636 19.887C8.18182 19.6035 7.99636 19.215 7.99636 18.7845L8.02909 18.4485L9.06545 13.65L2.18182 13.65C1.60316 13.65 1.04821 13.4288 0.63904 13.0349C0.22987 12.6411 0 12.107 0 11.55V9.45C0 9.177 0.0545444 8.925 0.152725 8.6835L3.44727 1.281C3.77454 0.525 4.54909 0 5.45454 0L15.2727 0ZM15.2727 2.1L5.42182 2.1L2.18182 9.45V11.55L11.7709 11.55L10.5382 17.136L15.2727 12.5685V2.1Z" fill="white"/>
</svg>
