<svg width="24" height="21" viewBox="0 0 24 21" fill="none" xmlns="http://www.w3.org/2000/svg">
<path d="M4.36364 8.4V21H0V8.4H4.36364ZM8.72727 21C8.14862 21 7.59366 20.7787 7.18449 20.3849C6.77532 19.9911 6.54545 19.457 6.54545 18.9V8.4C6.54545 7.8225 6.78545 7.2975 7.18909 6.9195L14.3673 0L15.5236 1.113C15.8182 1.3965 16.0036 1.785 16.0036 2.2155L15.9709 2.5515L14.9345 7.35H21.8182C22.3968 7.35 22.9518 7.57125 23.361 7.96508C23.7701 8.3589 24 8.89304 24 9.45V11.55C24 11.823 23.9455 12.075 23.8473 12.3165L20.5527 19.719C20.2255 20.475 19.4509 21 18.5455 21H8.72727ZM8.72727 18.9H18.5782L21.8182 11.55V9.45H12.2291L13.4618 3.864L8.72727 8.4315V18.9Z" fill="white"/>
</svg>
