<?xml version="1.0" encoding="UTF-8"?>
<svg id="Layer_2" data-name="Layer 2" xmlns="http://www.w3.org/2000/svg" viewBox="0 0 100.03 67.66">
  <defs>
    <style>
      .cls-1 {
        fill: #a2bfff;
        stroke-width: 0px;
      }
    </style>
  </defs>
  <g id="Layer_1-2" data-name="Layer 1">
    <g id="Layer_1-2" data-name="Layer 1-2">
      <path class="cls-1" d="M0,18.22c17.02,1.07,30.75-4.99,41.41-18.22.14.26.28.51.4.76,3.29,7.49,6.6,14.96,9.87,22.46,5.42,12.46,2.47,26.28-7.49,35.44-.87.8-1.79,1.16-2.92,1.25-13.35,1.09-25.47-5.97-30.96-18.16C6.89,34.17,3.6,26.53.26,18.93c-.09-.21-.16-.42-.26-.71ZM24.44,43.57c2.14,2.94,7.97,5.33,13.44,2.42,4.87-2.59,6.45-8.32,5.66-10.79-5.46,4.78-11.79,7.59-19.1,8.38h0ZM33.93,24.24c.1.49.16.98.29,1.45.2.7.59,1.27,1.42,1.03.81-.23.86-.85.64-1.6-.42-1.44.08-2.63,1.28-3.19,1.24-.58,2.46-.18,3.3,1.16.39.63.9.95,1.57.59.76-.41.62-1.07.26-1.72-1-1.81-3.16-2.75-5.18-2.24-2.11.54-3.52,2.34-3.59,4.51h0ZM20.1,27.91c-3.54,0-5.79,3.12-4.77,6.09.24.7.6,1.24,1.45.97.78-.25.81-.84.63-1.54-.39-1.46.1-2.63,1.3-3.18,1.24-.57,2.42-.15,3.3,1.19.4.61.89.95,1.57.53.69-.42.59-1.05.25-1.66-.9-1.57-2.27-2.37-3.72-2.41h0Z"/>
      <path class="cls-1" d="M100.02,23.27c-.92,2.54-1.8,4.97-2.68,7.4-2.07,5.72-3.97,11.51-6.25,17.14-4.63,11.44-13.21,17.94-25.42,19.66-.36.05-.73.06-1.1.07-5.42.22-4.47.49-8.52-3.22-2.45-2.24-4.3-4.97-5.86-7.91-.3-.57-.25-.97.12-1.52,7.01-10.35,8.05-21.3,3.17-32.8-.49-1.15-.59-2.1-.13-3.28,1.29-3.31,2.45-6.68,3.66-10.02.11-.31.25-.61.39-.95,11.49,12.5,25.63,17.62,42.61,15.41h0ZM54.9,50.21c3.75-.04,7.19.73,10.55,1.95,3.35,1.21,6.48,2.83,9.26,5.18.57-4.09-2.44-8.81-6.65-10.59-4.63-1.96-9.97-.61-13.16,3.47h0ZM82.41,40.17c1.9,0,3.63-1.13,4.32-2.82.26-.64.22-1.22-.42-1.54-.63-.31-1.16-.08-1.48.57-.04.09-.08.18-.13.27-.68,1.18-1.94,1.67-3.14,1.21-1.19-.45-1.83-1.65-1.52-2.99.18-.76.11-1.37-.72-1.57-.85-.21-1.18.37-1.37,1.08-.78,2.93,1.42,5.79,4.47,5.81h0ZM63.32,33.12c1.64-.12,3.06-.95,3.92-2.64.34-.67.41-1.32-.38-1.69-.7-.32-1.17,0-1.51.68-.72,1.38-1.93,1.89-3.21,1.41-1.21-.45-1.84-1.67-1.5-3.09.19-.79.04-1.37-.76-1.55-.83-.19-1.16.41-1.34,1.13-.72,2.92,1.54,5.79,4.78,5.76h0Z"/>
    </g>
  </g>
</svg>