<svg width="13" height="13" viewBox="0 0 13 13" fill="none" xmlns="http://www.w3.org/2000/svg">
<path d="M9.29102 8.1761H8.70383L8.49571 7.97541C9.2493 7.10133 9.66348 5.98542 9.66266 4.83133C9.66266 3.87579 9.37931 2.9417 8.84844 2.14719C8.31756 1.35268 7.56301 0.733437 6.6802 0.367765C5.79739 0.00209334 4.82597 -0.0935831 3.88879 0.0928349C2.9516 0.279253 2.09074 0.739392 1.41507 1.41507C0.739392 2.09074 0.279253 2.9516 0.0928349 3.88879C-0.0935831 4.82597 0.00209334 5.79739 0.367765 6.6802C0.733437 7.56301 1.35268 8.31756 2.14719 8.84844C2.9417 9.37931 3.87579 9.66266 4.83133 9.66266C6.02802 9.66266 7.12807 9.22413 7.97541 8.49571L8.1761 8.70383V9.29102L11.8925 13L13 11.8925L9.29102 8.1761ZM4.83133 8.1761C2.98056 8.1761 1.48657 6.6821 1.48657 4.83133C1.48657 2.98056 2.98056 1.48657 4.83133 1.48657C6.6821 1.48657 8.1761 2.98056 8.1761 4.83133C8.1761 6.6821 6.6821 8.1761 4.83133 8.1761Z" fill="white" fill-opacity="0.33"/>
</svg>
